<svg xmlns="http://www.w3.org/2000/svg" xmlns:xlink="http://www.w3.org/1999/xlink" contentStyleType="text/css" height="425px" preserveAspectRatio="none" style="width:1242px;height:425px;background:#FFFFFF;" version="1.1" viewBox="0 0 1242 425" width="1242px" zoomAndPan="magnify"><title>&#32452;&#21512;&#32467;&#26500;&#22270;&#65306;&#30333;&#26495;&#65288;Board&#65289;&#20869;&#37096;&#30001;&#21738;&#20123;&#38646;&#20214;&#32452;&#25104;&#12289;&#38646;&#20214;&#24590;&#20040;&#36830;</title><defs/><g><text fill="#000000" font-family="sans-serif" font-size="14" font-weight="bold" lengthAdjust="spacing" textLength="407.5996" x="409.4502" y="22.9951">&#32452;&#21512;&#32467;&#26500;&#22270;&#65306;&#30333;&#26495;&#65288;Board&#65289;&#20869;&#37096;&#30001;&#21738;&#20123;&#38646;&#20214;&#32452;&#25104;&#12289;&#38646;&#20214;&#24590;&#20040;&#36830;</text><!--cluster BOARD--><g id="cluster_BOARD"><rect fill="none" height="352" rx="2.5" ry="2.5" style="stroke:#181818;stroke-width:1;" width="709" x="14" y="41.2969"/><text fill="#000000" font-family="sans-serif" font-size="14" font-weight="bold" lengthAdjust="spacing" textLength="324.9736" x="206.0132" y="56.292">&#30333;&#26495;&#65288;Board&#65289;&#8212;&#8212; &#25171;&#24320;&#19968;&#26465;&#38543;&#31508;&#26102;&#30340;&#20840;&#23631;&#32534;&#36753;&#23618;</text></g><!--entity OPS--><g id="elem_OPS"><rect fill="#F1F1F1" height="36.2969" rx="2.5" ry="2.5" style="stroke:#181818;stroke-width:0.5;" width="269.2588" x="731.5" y="381.2969"/><text fill="#000000" font-family="sans-serif" font-size="14" lengthAdjust="spacing" textLength="249.2588" x="741.5" y="404.292">&#21407;&#29983; op &#23618;&#65288;BlockOps / OpsRouter&#65289;</text></g><!--entity SYS--><g id="elem_SYS"><rect fill="#F1F1F1" height="36.2969" rx="2.5" ry="2.5" style="stroke:#181818;stroke-width:0.5;" width="159.6172" x="1019" y="381.2969"/><text fill="#000000" font-family="sans-serif" font-size="14" lengthAdjust="spacing" textLength="139.6172" x="1029" y="404.292">&#31995;&#32479;&#27983;&#35272;&#22120; / &#20998;&#20139;&#38754;&#26495;</text></g><g id="elem_GMN24"><path d="M732.5,159.2969 L732.5,199.5625 L1235.6172,199.5625 L1235.6172,169.2969 L1225.6172,159.2969 L732.5,159.2969 " fill="#FEFFDD" style="stroke:#181818;stroke-width:0.5;"/><path d="M1225.6172,159.2969 L1225.6172,169.2969 L1235.6172,169.2969 L1225.6172,159.2969 " fill="#FEFFDD" style="stroke:#181818;stroke-width:1;"/><text fill="#000000" font-family="sans-serif" font-size="13" lengthAdjust="spacing" textLength="110.7349" x="738.5" y="176.3638">&#32452;&#21512;&#32467;&#26500;&#22270;&#30475;&#30340;&#26159;&#8220;</text><text fill="#000000" font-family="sans-serif" font-size="13" font-weight="bold" lengthAdjust="spacing" textLength="80.4375" x="849.2349" y="176.3638">&#19968;&#20010;&#19996;&#35199;&#20869;&#37096;</text><text fill="#000000" font-family="sans-serif" font-size="13" lengthAdjust="spacing" textLength="137.395" x="929.6724" y="176.3638">&#8221;&#65306;&#21738;&#20123;&#38646;&#20214;&#65288;part&#65289;&#12289;</text><text fill="#000000" font-family="sans-serif" font-size="13" lengthAdjust="spacing" textLength="482.1172" x="738.5" y="191.4966">&#23545;&#22806;&#30041;&#20102;&#21738;&#20123;&#31471;&#21475;&#65288;port&#65289;&#12289;&#38646;&#20214;&#20043;&#38388;&#24590;&#20040;&#36830;&#12290;&#23427;&#19981;&#38382;&#8220;&#26377;&#21738;&#20123;&#31181;&#31867;&#8221;&#65288;&#37027;&#26159;&#31867;&#22270;&#65289;&#12290;</text></g><g id="elem_GMN27"><path d="M732.5,271.2969 L732.5,326.6953 A0,0 0 0 0 732.5,326.6953 L1121.1563,326.6953 A0,0 0 0 0 1121.1563,326.6953 L1121.1563,281.2969 L1111.1563,271.2969 L893.9127,271.2969 L673.0306,286.7219 L885.9127,271.2969 L732.5,271.2969 A0,0 0 0 0 732.5,271.2969 " fill="#FEFFDD" style="stroke:#181818;stroke-width:0.5;"/><path d="M1111.1563,271.2969 L1111.1563,281.2969 L1121.1563,281.2969 L1111.1563,271.2969 " fill="#FEFFDD" style="stroke:#181818;stroke-width:0.5;"/><text fill="#000000" font-family="sans-serif" font-size="13" lengthAdjust="spacing" textLength="260" x="738.5" y="288.3638">&#25105;&#20204;&#30340;&#23454;&#29616;&#37324;&#65292;&#31471;&#21475;&#19981;&#26159;&#19968;&#20010;&#30495;&#23454;&#30340;&#35821;&#35328;&#26500;&#36896;</text><text fill="#000000" font-family="sans-serif" font-size="13" lengthAdjust="spacing" textLength="257.8545" x="738.5" y="303.4966">&#65288;&#23427;&#26159; WebView &#30340; JS &#26725;&#23383;&#31526;&#20018;&#21327;&#35758;&#65289;&#8212;&#8212;</text><text fill="#000000" font-family="sans-serif" font-size="13" lengthAdjust="spacing" textLength="78" x="738.5" y="318.6294">&#36825;&#24352;&#22270;&#30011;&#30340;&#26159;</text><text fill="#000000" font-family="sans-serif" font-size="13" font-weight="bold" lengthAdjust="spacing" textLength="80.4375" x="816.5" y="318.6294">&#35774;&#35745;&#19978;&#30340;&#31471;&#21475;</text><text fill="#000000" font-family="sans-serif" font-size="13" lengthAdjust="spacing" textLength="13" x="896.9375" y="318.6294">&#65292;</text><text fill="#000000" font-family="sans-serif" font-size="13" font-weight="bold" lengthAdjust="spacing" textLength="40.2188" x="909.9375" y="318.6294">&#24453;&#30830;&#35748;</text><text fill="#000000" font-family="sans-serif" font-size="13" lengthAdjust="spacing" textLength="156" x="950.1563" y="318.6294">&#65306;&#35201;&#19981;&#35201;&#22312;&#20195;&#30721;&#37324;&#26174;&#24335;&#21270;&#12290;</text></g><!--entity ARCH--><g id="elem_ARCH"><rect fill="#F1F1F1" height="36.2969" rx="2.5" ry="2.5" style="stroke:#181818;stroke-width:0.5;" width="222.6309" x="212.5" y="161.2969"/><text fill="#000000" font-family="sans-serif" font-size="14" lengthAdjust="spacing" textLength="202.6309" x="222.5" y="184.292">&#24402;&#26723;&#21306;&#65288;&#26631;&#39064;&#36755;&#20837; + &#26631;&#31614;&#36755;&#20837;&#65289;</text></g><!--entity BODY--><g id="elem_BODY"><rect fill="#F1F1F1" height="36.2969" rx="2.5" ry="2.5" style="stroke:#181818;stroke-width:0.5;" width="177.4043" x="183.5" y="280.7969"/><text fill="#000000" font-family="sans-serif" font-size="14" lengthAdjust="spacing" textLength="157.4043" x="193.5" y="303.792">&#27491;&#25991;&#32534;&#36753;&#22120;&#65288;textarea&#65289;</text></g><!--entity BAR--><g id="elem_BAR"><rect fill="#F1F1F1" height="36.2969" rx="2.5" ry="2.5" style="stroke:#181818;stroke-width:0.5;" width="187.2344" x="164.5" y="68.2969"/><text fill="#000000" font-family="sans-serif" font-size="14" lengthAdjust="spacing" textLength="167.2344" x="174.5" y="91.292">&#24037;&#20855;&#26639;&#65288;&#23436;&#25104; / &#39044;&#35272; / &#8943;&#65289;</text></g><!--entity PREV--><g id="elem_PREV"><rect fill="#F1F1F1" height="36.2969" rx="2.5" ry="2.5" style="stroke:#181818;stroke-width:0.5;" width="242.7627" x="22.5" y="217.2969"/><text fill="#000000" font-family="sans-serif" font-size="14" lengthAdjust="spacing" textLength="222.7627" x="32.5" y="240.292">&#39044;&#35272;&#23618;&#65288;render.js + &#31163;&#32447;&#19977;&#26041;&#24211;&#65289;</text></g><!--entity SHEET--><g id="elem_SHEET"><rect fill="#F1F1F1" height="36.2969" rx="2.5" ry="2.5" style="stroke:#181818;stroke-width:0.5;" width="260.9668" x="453.5" y="161.2969"/><text fill="#000000" font-family="sans-serif" font-size="14" lengthAdjust="spacing" textLength="240.9668" x="463.5" y="184.292">&#23567;&#31383;&#65288;sheet.js&#65306;&#8943; &#37324;&#30340;&#21024;&#38500;&#31561;&#21160;&#20316;&#65289;</text></g><text fill="#000000" font-family="sans-serif" font-size="14" lengthAdjust="spacing" textLength="197.9482" x="571.0259" y="311.792">op &#31471;&#21475;&#65288;blk.get / blk.save&#65289;</text><rect fill="#F1F1F1" height="12" style="stroke:#181818;stroke-width:1.5;" width="12" x="664" y="286.7969"/><text fill="#000000" font-family="sans-serif" font-size="14" lengthAdjust="spacing" textLength="212.3652" x="99.8174" y="412.292">&#28210;&#26579;&#31471;&#21475;&#65288;markdown &#8594; DOM&#65289;</text><rect fill="#F1F1F1" height="12" style="stroke:#181818;stroke-width:1.5;" width="12" x="200" y="387.2969"/><text fill="#000000" font-family="sans-serif" font-size="14" lengthAdjust="spacing" textLength="177.7686" x="615.1157" y="311.792">&#31995;&#32479;&#31471;&#21475;&#65288;ui.open / &#20998;&#20139;&#65289;</text><rect fill="#F1F1F1" height="12" style="stroke:#181818;stroke-width:1.5;" width="12" x="698" y="286.7969"/><path d="M309.5607,197.5967 C305.0824,203.5677 300.4284,210.4761 297,217.2969 C286.6159,237.9559 279.5267,263.778 275.6207,280.5206 " fill="none" style="stroke:#181818;stroke-width:1;"/><text fill="#000000" font-family="sans-serif" font-size="13" lengthAdjust="spacing" textLength="117" x="299" y="239.8638">&#21516;&#19968;&#22359;&#30340;&#26631;&#39064;&#19982;&#27491;&#25991;</text><path d="M270.4141,104.4133 C282.2138,120.6826 299.8602,145.0133 311.6416,161.2572 " fill="none" style="stroke:#181818;stroke-width:1;"/><text fill="#000000" font-family="sans-serif" font-size="13" lengthAdjust="spacing" textLength="143" x="299" y="136.3638">&#23436;&#25104;&#26102;&#25226;&#26631;&#39064;&#19982;&#26631;&#31614;&#21462;&#36208;</text><path d="M238.4989,104.37 C214.6073,127.3654 179.9779,168.9066 203,199.2969 C220.8424,222.8497 248.4358,194.3087 267,217.2969 C281.3399,235.054 279.4459,262.8341 276.1773,280.6746 " fill="none" style="stroke:#181818;stroke-width:1;"/><path d="M164.3955,99.1378 C137.9822,104.5071 114.1788,112.0208 106,122.2969 C83.3674,150.7332 110.197,193.3882 128.9113,217.0063 " fill="none" style="stroke:#181818;stroke-width:1;"/><text fill="#000000" font-family="sans-serif" font-size="13" lengthAdjust="spacing" textLength="78" x="108" y="136.3638">&#12300;&#39044;&#35272;&#12301;&#20999;&#25442;</text><path d="M351.6859,100.5633 C382.6713,106.005 417.112,113.2009 448,122.2969 C483.027,132.6117 521.3579,148.8765 548.3723,161.2254 " fill="none" style="stroke:#181818;stroke-width:1;"/><text fill="#000000" font-family="sans-serif" font-size="13" lengthAdjust="spacing" textLength="65" x="503" y="136.3638">&#12300;&#8943;&#12301;&#24377;&#20986;</text><path d="M372.0342,197.3635 C386.9963,203.1663 403.3953,210.035 418,217.2969 C445.5056,230.9734 448.5433,241.7287 477,253.2969 C546.1614,281.4123 636.6941,293.6901 663.9188,296.9017 " fill="none" style="stroke:#181818;stroke-width:1;"/><text fill="#000000" font-family="sans-serif" font-size="13" lengthAdjust="spacing" textLength="149.1572" x="479" y="239.8638">&#26631;&#31614;&#25913;&#20102; &#8594; &#35302;&#21457;&#25972;&#22359;&#25644;&#23478;</text><path d="M260.8521,316.9543 C247.7444,337.1278 226.3691,370.0257 215.2443,387.1474 " fill="none" style="stroke:#181818;stroke-width:1;"/><text fill="#000000" font-family="sans-serif" font-size="13" lengthAdjust="spacing" textLength="91" x="244" y="358.3638">&#27491;&#25991;&#20132;&#32473;&#28210;&#26579;&#22120;</text><path d="M149.044,253.4348 C154.5761,271.7064 164.0056,301.3802 174,326.2969 C182.8516,348.3645 195.157,373.2807 202.2794,387.256 " fill="none" style="stroke:#181818;stroke-width:1;"/><path d="M607.4137,197.4252 C629.904,214.5711 664.0539,242.4812 689,271.2969 C693.0785,276.008 696.8957,281.7783 699.8756,286.7302 " fill="none" style="stroke:#181818;stroke-width:1;"/><text fill="#000000" font-family="sans-serif" font-size="13" lengthAdjust="spacing" textLength="95.3799" x="672" y="239.8638">&#21024;&#38500;/&#20998;&#20139;&#31867;&#21160;&#20316;</text><path d="M677.1696,311.0027 C680.04,316.2222 684.0394,322.1745 689,326.2969 C720.2548,352.2704 762.1267,369.8728 797.2982,381.1682 " fill="none" style="stroke:#181818;stroke-width:1;"/><text fill="#000000" font-family="sans-serif" font-size="13" lengthAdjust="spacing" textLength="55.2183" x="748" y="358.3638">JS &#26725;&#35843;&#29992;</text><path d="M710.9731,310.9125 C713.9778,316.3743 718.3315,322.5676 724,326.2969 C724.3883,326.5524 908.5978,361.8478 1018.6571,382.9195 " fill="none" style="stroke:#181818;stroke-width:1;"/><path d="M723.4387,92.6973 C723.6029,92.7513 723.7683,92.8056 723.9347,92.8603 C724.6003,93.0789 725.2831,93.3032 725.9824,93.533 C727.3812,93.9925 728.8465,94.4739 730.3747,94.9759 C736.4875,96.9841 743.6064,99.3228 751.496,101.9147 C767.2752,107.0985 786.1371,113.295 806.1984,119.8855 C846.3211,133.0666 891.2415,147.8239 925.8928,159.2075 " fill="none" style="stroke:#181818;stroke-width:1;stroke-dasharray:7.0,7.0;"/><!--SRC=[PLNVJnfP57wVl-9kNvgmqRxjmxvfDMasss9ajvi-ZZf5Lc38C6wtsMmo_W11mT52GH0LVnCBetPR1GOnsJz5vzuxy-I_iEVEXLcr2I5pcVETyvtlVFVm5FtwycU43x9MgqhIApYPGVzU8fmuf_aQFjEjxWfkhDrroavPf_Ky6eh5xZgfYAZC32YIE1MLLIb-rqaBJn4rSsHxaPwRj5v7Fo3SgGAAcejuBSLVuSqkG9_BaPWS3waI2gZAxAGwgqXe92G65J72ydmNKyHWH4HXyRqygw9uH5B5g2Ye8JKieM-obMdfYcnTGzfXMLIc805E9fo56isVuzo9rTvqDYyiym9m9BLsgytn8z5MhLRAljuMXFXCA1eJeJQAJujJyhjGD8ZUYk6uTE_D96CSbQ9gG7qF91Hf4YW5mv8WU6_Gas-8t6Xv-22Ipk6EPZKrihNB9IJ52rfUn8aQFjTffs1tr_7v_1Canj6mVsXy1Fqb87GlCRxwG7RtSQODkKbroTdRiBivd3X4toCuqaQN7w6YcsDe_FcBXmb8OvyKbdgLIZL8eqf_gY9ChuyPze-yULJqyX0dBabLXsXiP40yz0mvUulsSGeURbPEFUZG-4Ca3uAE0Ab8qIb96Vmz3bpfaKdRrrOpJGejtCxryMFZewyVbJxJwKaHqF5fIL8135E6WiXPoZ3PKbMdT40RQRnSiwug_JI15wEZlmYGA2Oha4EE8Vhf5Elxa6OYF3COb5IWpPxYuX-ILzi_vY58ypFPoNaWvczmGnJT93-W4V_BUtHVUHZwZqdD7Gyp6ngKOr8K2k5Kqcf_yZ21Dm7XxmTcmQixDB-3W2ONQZWiJyxuOt70mlSu65zI-d3_ME21pzoYvAlEL2xLl6hErXxuZui1zGJc0pGmuCuM_OZmMWOyYBUAe25taTLSvSuGO8OiqaL0f3jkC2bPNlu_qdKQrWlsrxD-lEkQtZCR8s1ljGoV_wsMnQabajth1xW3uX4mJFQwqy9BROycp0BUyZ8atxBQILTw-_W8w-launTWJjRgsBWGt8PuoLSCulPWjG-eMU9315K4bqylIE2rsGcKOHsw7dh6TODznQqaC0eG17f3p4y1H7OFxRC5s8A2YsDDC67PnaCJighA4II_vNSMBF5eDT7A2bDwu_H6g_Xy8BtLFB6Q5VlmcYyed-z6sm9dtzzIO0HOE2eC7ZOLfCIdBNnGe1zBe0QFyxp63CZZEDHghJZ5BzvUkzNciR5WDRDEqG02f9BkuO-pqAzREUNCxmCzrZvRf91gNe3hYbXxlIQLK71QPJtoYq9IwvPPPtVGsAQhPt0VxpePpWWgGIxU9Qtii83oedtQi6iQoE5eLO2xcsG1mj1lqiJhaFGEGKnFPzmeqlgHrVoCixfj6Dxs19XzNO9_4gPetkIA-dosqRMDNQkv33zm0ZuVSF7vS3T1TmtRE63didqq1yJW6rTgbhbFgtF0cMnqSKV7cSA3Xly3]--></g></svg>